<svg width="128" height="128" viewBox="0 0 128 128" fill="none" xmlns="http://www.w3.org/2000/svg">
  <defs>
    <linearGradient id="g" x1="18" y1="18" x2="110" y2="110" gradientUnits="userSpaceOnUse">
      <stop stop-color="#22C55E"/>
      <stop offset="0.55" stop-color="#F97316"/>
      <stop offset="1" stop-color="#A7F3D0"/>
    </linearGradient>
    <filter id="s" x="-20%" y="-20%" width="140%" height="140%">
      <feDropShadow dx="0" dy="12" stdDeviation="10" flood-color="#000" flood-opacity="0.45"/>
    </filter>
  </defs>
  <rect x="14" y="14" width="100" height="100" rx="26" fill="rgba(255,255,255,0.06)" stroke="rgba(255,255,255,0.12)"/>
  <g filter="url(#s)">
    <path d="M40 75c13-1 21-9 23-24 2 15 10 23 23 24-13 1-21 9-23 24-2-15-10-23-23-24Z" fill="url(#g)"/>
    <path d="M64 30c-9 9-12 17-12 26 0 10 6 18 12 22 6-4 12-12 12-22 0-9-3-17-12-26Z" fill="url(#g)" opacity="0.9"/>
  </g>
</svg>
